PathFileType	4	(X/Y/Z)	D:\Share\Shared_Data\Ergonomics\Sit To Stand Pertubation\S3\Unperturbed.trc
DataRate	CameraRate	NumFrames	NumMarkers	Units	OrigDataRate	OrigDataStartFrame	OrigNumFrames	
100	100	9	18	m	100	3683	231
Frame#	Time	R_Thigh			R_ASIS			R_Pelvis			V_Sacral			L_Pelvis			L_ASIS			Clavical			R_Acromium			L_Acromium			Sternum			Torso			R_Thigh_Med			R_Thigh_Lat			R_Shank_Med			R_Shank_Lat			R_Shank			R_Heel			R_Toe			
		X1	Y1	Z1	X2	Y2	Z2	X3	Y3	Z3	X4	Y4	Z4	X5	Y5	Z5	X6	Y6	Z6	X7	Y7	Z7	X8	Y8	Z8	X9	Y9	Z9	X10	Y10	Z10	X11	Y11	Z11	X12	Y12	Z12	X13	Y13	Z13	X14	Y14	Z14	X15	Y15	Z15	X16	Y16	Z16	X17	Y17	Z17	X18	Y18	Z18	

3683	36.82	0.45014633	0.65344116	0.096542175	0.44421814	0.94429175	0.12799004	0.33055386	0.94325079	0.17240837	0.23174348	0.96106067	-0.022613457	0.35235526	0.95681647	-0.21989581	0.45647528	0.94011096	-0.15747787	0.36913431	1.3626193	-0.0053060241	0.29941449	1.4072939	0.16412546	0.32165973	1.4181698	-0.1621306	0.40373929	1.2913917	-0.001568033	0.37812103	1.351835	-0.070838463	0.36059244	0.45246475	0.033259293	0.33145325	0.45358188	0.13563869	0.26147903	0.10483669	0.089775322	0.23781055	0.10001899	0.16754533	0.25434271	0.28988504	0.16389648	0.18202896	0.056828186	0.12219273	0.40139948	0.053325096	0.14001859
3684	36.83	0.44967038	0.65337787	0.096389793	0.44387939	0.94414081	0.12791563	0.33018536	0.9432619	0.17233093	0.23150983	0.96120056	-0.022857056	0.35232465	0.95688025	-0.22001384	0.4563024	0.93997968	-0.15745282	0.36925443	1.3626915	-0.0052651553	0.29948318	1.4072617	0.16418694	0.32174564	1.4182633	-0.1621169	0.40385623	1.291407	-0.0015074009	0.37830289	1.3519406	-0.070801132	0.36013312	0.452423	0.033183784	0.33110849	0.45353696	0.13557837	0.26130414	0.10484676	0.089788406	0.23770256	0.099913719	0.16759944	0.25415671	0.28981088	0.16394443	0.18200032	0.057545292	0.12287589	0.40135703	0.053331276	0.14001443
3685	36.84	0.44912762	0.6533313	0.096241653	0.44349271	0.94400781	0.12780626	0.32979788	0.94331226	0.17228055	0.23121649	0.9613584	-0.023054621	0.35218585	0.95697363	-0.22013229	0.4560524	0.93987866	-0.15746213	0.36941025	1.3628019	-0.0052322803	0.29962637	1.4072882	0.1642318	0.32191425	1.418396	-0.16210725	0.40398834	1.2914688	-0.0014708304	0.37851828	1.3520837	-0.070780441	0.35961951	0.45239594	0.033105103	0.33070642	0.45350244	0.13551627	0.26115277	0.10486029	0.089803864	0.23760236	0.099902893	0.16767598	0.25394762	0.28974469	0.16399557	0.18196994	0.058193203	0.12349598	0.40131564	0.053337723	0.14000948
3686	36.85	0.44853033	0.65330829	0.096098351	0.44306192	0.94390137	0.12766719	0.32938748	0.94340063	0.17224115	0.23086841	0.96153662	-0.023213131	0.3519415	0.95708582	-0.22024759	0.45573248	0.93980969	-0.15750769	0.36959967	1.362948	-0.0052061582	0.29984866	1.4073721	0.16426237	0.32216641	1.4185652	-0.16210062	0.40413452	1.2915709	-0.0014561589	0.37876035	1.3522583	-0.070775848	0.35907172	0.45238684	0.033023277	0.33026089	0.4534845	0.13545207	0.26102792	0.10487617	0.089823334	0.2375125	0.099987823	0.16777399	0.25372037	0.28969113	0.16404575	0.18193973	0.058697754	0.12398724	0.40127728	0.053344524	0.14000284
3687	36.86	0.44789496	0.65331287	0.095959946	0.44259152	0.94382666	0.12750671	0.32894781	0.94352234	0.1721982	0.23047075	0.9617381	-0.023341482	0.35159818	0.95720575	-0.2203544	0.45535098	0.93977112	-0.1575876	0.36982062	1.3631255	-0.0051865001	0.30015085	1.4075103	0.16428186	0.32249564	1.4187682	-0.16209624	0.40429391	1.2917042	-0.0014599119	0.37901999	1.352457	-0.070786682	0.35851044	0.45239563	0.032939255	0.32978806	0.45348639	0.1353858	0.2609252	0.10489432	0.089844803	0.23742903	0.10017239	0.16789761	0.25348082	0.28965167	0.16409348	0.18191248	0.059045662	0.12433653	0.4012431	0.053351543	0.13999394
3688	36.87	0.44724011	0.65334528	0.095827316	0.44208615	0.94378491	0.12733495	0.32847198	0.94366937	0.17214052	0.23002739	0.96196558	-0.023448311	0.35116602	0.95732397	-0.2204483	0.45491495	0.93975861	-0.15769565	0.37007037	1.3633291	-0.0051738501	0.30052997	1.4076973	0.16429295	0.32289072	1.4190009	-0.16209322	0.40446567	1.2918574	-0.0014784657	0.37929071	1.3526719	-0.070810699	0.35795648	0.45241867	0.032854614	0.32930426	0.45350745	0.13531767	0.26083392	0.10491462	0.089863594	0.23734433	0.10045625	0.1680517	0.25323552	0.28962494	0.16413934	0.18189006	0.059256573	0.12455965	0.40121362	0.053358421	0.13998279
3689	36.88	0.44658447	0.65340289	0.095703049	0.44154959	0.94377374	0.12716268	0.32795486	0.94383173	0.17206166	0.22953979	0.9622204	-0.023540281	0.35065677	0.95743286	-0.22052744	0.45442883	0.93976544	-0.15782202	0.37034479	1.3635516	-0.005168951	0.30097992	1.4079255	0.16429707	0.32333832	1.419259	-0.16209061	0.40464838	1.292019	-0.0015091033	0.37957074	1.3528929	-0.070843788	0.3574292	0.45244931	0.032771866	0.32882455	0.45354419	0.13524863	0.26074048	0.10493612	0.089872581	0.23725212	0.10082203	0.16823349	0.25299051	0.28960712	0.16418433	0.18187311	0.059363499	0.1246848	0.40118857	0.05336478	0.1399698
3690	36.89	0.44594412	0.65348065	0.09559156	0.44098416	0.94378851	0.12699998	0.32739371	0.94399884	0.17196059	0.22900778	0.96250177	-0.023621262	0.35008197	0.9575282	-0.22059227	0.45389505	0.93978339	-0.15795554	0.37063895	1.3637843	-0.0051723752	0.30149173	1.4081854	0.16429439	0.32382449	1.4195377	-0.16208844	0.40483969	1.2921771	-0.0015505352	0.37986111	1.3531102	-0.070881264	0.3569444	0.45247928	0.032694736	0.32836194	0.45359125	0.13518088	0.26063525	0.10495643	0.089863388	0.23715375	0.10122516	0.16842532	0.25275031	0.28959332	0.16422852	0.18186137	0.059400684	0.12474207	0.40116736	0.05337038	0.13995543
3691	36.9	0.4453313	0.65357336	0.095498856	0.44039053	0.94382324	0.12685552	0.32678845	0.94416058	0.1718419	0.22843135	0.96280566	-0.023691895	0.34945184	0.95760876	-0.22064375	0.45331598	0.93980396	-0.15808556	0.37094778	1.3640179	-0.005184412	0.30205341	1.4084666	0.16428447	0.32433646	1.4198303	-0.16208821	0.40503629	1.292322	-0.001602788	0.38016257	1.3533135	-0.070919189	0.35651331	0.45250046	0.032627731	0.32792642	0.4536427	0.13511746	0.26051984	0.10497208	0.089833656	0.23705937	0.10160615	0.16860034	0.25251704	0.28957843	0.16427058	0.18185399	0.05939698	0.12475739	0.4011492	0.053375156	0.1399404
